<?xml version="1.0" standalone="no"?>
<!DOCTYPE svg PUBLIC "-//W3C//DTD SVG 20010904//EN"
 "http://www.w3.org/TR/2001/REC-SVG-20010904/DTD/svg10.dtd">
<svg version="1.0" xmlns="http://www.w3.org/2000/svg"
 width="2048.000000pt" height="2048.000000pt" viewBox="0 0 2048.000000 2048.000000"
 preserveAspectRatio="xMidYMid meet">

<g transform="translate(0.000000,2048.000000) scale(0.100000,-0.100000)"
fill="#000000" stroke="none">
<path d="M9695 16079 c-110 -4 -227 -10 -260 -14 -33 -4 -118 -10 -190 -15
-71 -5 -186 -16 -255 -25 -69 -8 -163 -20 -210 -25 -47 -5 -137 -18 -200 -29
-63 -11 -146 -26 -185 -32 -76 -12 -235 -44 -330 -66 -33 -7 -80 -18 -105 -23
-82 -16 -174 -39 -265 -65 -49 -14 -124 -35 -165 -46 -112 -30 -242 -69 -265
-79 -11 -5 -90 -32 -175 -60 -133 -45 -249 -87 -325 -120 -11 -5 -81 -34 -155
-64 -116 -47 -265 -115 -475 -218 -53 -26 -79 -40 -325 -179 -167 -94 -423
-259 -560 -361 -47 -34 -89 -66 -95 -70 -5 -4 -26 -20 -45 -35 -19 -16 -60
-47 -90 -70 -30 -22 -64 -49 -75 -59 -11 -11 -74 -67 -140 -125 -176 -157
-402 -390 -536 -554 -144 -177 -188 -236 -274 -365 -50 -74 -93 -136 -97 -138
-5 -2 -8 -9 -8 -15 0 -6 -6 -18 -14 -26 -33 -37 -234 -437 -285 -566 -23 -60
-51 -129 -62 -153 -21 -47 -37 -94 -64 -187 -9 -33 -22 -73 -27 -90 -6 -16
-14 -43 -18 -60 -5 -16 -16 -55 -25 -85 -36 -123 -57 -222 -95 -450 -23 -135
-33 -414 -21 -605 6 -104 15 -208 21 -230 5 -22 10 -57 10 -79 0 -21 4 -55 10
-75 5 -20 23 -92 40 -161 33 -135 91 -309 135 -405 63 -139 101 -213 145 -285
26 -43 49 -82 51 -87 8 -20 156 -217 204 -272 283 -318 561 -516 970 -686 17
-7 41 -18 55 -23 14 -6 66 -23 115 -37 50 -15 108 -33 130 -40 88 -28 360 -82
545 -107 128 -17 210 -21 470 -22 349 -1 467 8 705 56 188 38 240 50 343 82
45 14 117 37 160 50 42 13 112 40 155 60 43 20 83 36 88 36 5 0 17 4 27 10 9
5 55 27 102 49 47 22 136 69 199 105 62 36 116 66 118 66 3 0 57 37 121 83 64
46 128 90 142 99 14 9 36 26 50 38 14 12 50 43 80 68 111 95 147 128 220 202
141 141 228 240 317 357 48 65 91 120 94 123 14 13 105 145 116 170 4 8 9 17
13 20 7 6 90 139 90 145 0 2 11 20 25 40 32 49 205 402 239 490 15 39 34 88
43 110 8 22 19 49 23 60 4 11 15 38 23 60 29 74 57 156 67 193 5 20 16 60 24
87 47 156 77 265 87 310 5 22 16 72 24 110 16 71 22 104 50 295 17 119 19 135
41 355 15 158 23 860 10 895 -3 8 -10 71 -16 140 -11 148 -35 334 -45 349 -8
14 -38 14 -108 0 -56 -12 -57 -12 -57 -47 0 -19 6 -85 14 -146 51 -389 49
-883 -5 -1306 -45 -357 -87 -577 -160 -840 -36 -129 -51 -173 -79 -245 -5 -11
-20 -54 -35 -95 -27 -77 -32 -91 -80 -195 -15 -33 -35 -76 -43 -95 -86 -200
-288 -542 -443 -751 -51 -68 -95 -126 -99 -129 -3 -3 -28 -32 -55 -65 -84
-100 -106 -124 -230 -247 -120 -119 -146 -144 -281 -255 -78 -65 -278 -203
-352 -244 -158 -87 -258 -135 -384 -188 -192 -79 -252 -97 -478 -143 -88 -18
-511 -18 -600 0 -162 33 -218 45 -255 57 -22 7 -60 19 -85 26 -151 42 -366
148 -485 238 -120 92 -283 266 -335 359 -8 15 -31 54 -50 87 -19 33 -41 76
-48 95 -114 294 -142 448 -142 785 0 327 37 589 136 955 8 30 19 71 23 90 9
38 45 153 66 210 7 19 20 60 30 90 18 56 59 169 75 205 5 11 29 70 53 130 45
110 100 234 139 310 125 246 260 472 401 674 72 103 172 237 187 251 3 3 21
25 40 50 19 25 39 50 45 56 5 6 33 37 60 69 162 190 269 302 471 495 164 157
234 218 434 378 30 24 64 52 75 61 41 34 272 198 340 241 39 25 72 47 75 51 3
3 12 8 20 12 8 4 67 39 130 78 63 39 140 84 170 101 30 17 71 40 90 51 92 52
385 195 495 242 17 7 53 23 80 35 86 39 409 160 426 160 8 0 18 3 22 6 7 8
149 54 237 78 36 10 76 22 90 27 14 4 54 15 90 24 36 9 81 20 100 25 19 6 67
17 105 25 39 9 88 20 110 25 120 28 404 74 555 90 47 5 130 13 185 19 55 6
215 13 355 17 460 11 969 -46 1355 -152 33 -9 76 -20 95 -25 41 -9 142 -36
185 -49 17 -5 53 -16 80 -24 159 -47 412 -129 460 -151 17 -7 59 -23 95 -35
132 -45 361 -145 565 -246 258 -127 269 -133 529 -297 75 -47 183 -118 193
-127 7 -5 15 -10 18 -10 7 0 72 -47 93 -67 7 -7 17 -13 20 -13 4 0 18 -10 32
-23 14 -12 68 -54 120 -92 52 -38 97 -72 100 -75 3 -4 64 -57 135 -119 72 -62
152 -136 179 -164 27 -29 90 -93 139 -144 50 -51 88 -95 85 -98 -6 -6 -164
-63 -318 -114 -100 -33 -102 -34 -193 -75 -32 -14 -61 -26 -65 -26 -5 0 -32
-11 -60 -25 -29 -14 -56 -25 -62 -25 -6 0 -18 -4 -28 -10 -9 -5 -46 -22 -82
-38 -130 -58 -446 -217 -497 -249 -29 -18 -54 -33 -57 -33 -3 0 -35 -18 -71
-40 -36 -22 -68 -40 -70 -40 -3 0 -58 -33 -123 -74 -98 -62 -163 -104 -332
-216 -39 -25 -431 -308 -461 -332 -19 -15 -91 -71 -160 -125 -104 -81 -300
-243 -319 -263 -3 -3 -26 -22 -52 -43 -26 -21 -53 -43 -60 -50 -7 -7 -76 -68
-153 -137 -77 -69 -152 -136 -166 -150 -15 -14 -109 -104 -210 -200 -101 -96
-224 -215 -273 -265 -189 -191 -453 -464 -500 -516 -27 -30 -102 -110 -166
-179 -64 -69 -161 -174 -215 -235 -55 -60 -109 -119 -120 -130 -11 -11 -40
-42 -64 -70 -25 -27 -74 -82 -110 -120 -36 -39 -100 -109 -141 -155 -41 -46
-91 -100 -110 -120 -19 -19 -75 -80 -125 -135 -49 -55 -94 -105 -100 -111 -23
-25 -96 -105 -190 -209 -55 -60 -109 -119 -120 -130 -11 -11 -54 -58 -95 -105
-41 -47 -82 -92 -90 -100 -8 -8 -49 -53 -90 -100 -71 -81 -155 -172 -210 -230
-14 -14 -43 -46 -64 -70 -113 -130 -477 -509 -757 -789 -267 -267 -389 -385
-499 -481 -47 -41 -114 -101 -150 -135 -36 -33 -124 -107 -195 -165 -72 -57
-132 -107 -135 -110 -3 -4 -32 -26 -65 -51 -33 -24 -62 -46 -65 -49 -40 -43
-603 -430 -626 -430 -4 0 -53 -29 -130 -77 -63 -40 -390 -199 -509 -248 -77
-31 -149 -61 -160 -65 -19 -9 -160 -53 -220 -70 -116 -32 -150 -40 -202 -49
-32 -5 -98 -17 -148 -25 -131 -23 -347 -33 -530 -26 -158 7 -161 7 -230 42
-64 33 -126 63 -352 169 -46 22 -120 57 -165 78 -46 21 -112 53 -148 69 -36
16 -113 53 -172 81 -60 28 -156 74 -215 102 -60 28 -136 64 -171 80 -34 16
-117 55 -185 88 -142 68 -277 131 -282 131 -2 0 -41 17 -87 39 -112 52 -163
74 -228 101 -30 12 -64 26 -75 30 -11 5 -40 17 -65 28 -25 10 -58 24 -75 29
-16 6 -39 14 -50 18 -198 73 -246 88 -280 89 l-40 1 -17 -100 c-24 -138 -44
-278 -73 -495 -13 -102 -28 -211 -33 -244 -11 -70 1 -88 69 -106 23 -6 49 -15
58 -20 9 -5 43 -16 76 -25 33 -9 71 -20 85 -25 14 -4 54 -15 90 -25 36 -9 88
-23 115 -30 28 -8 75 -19 105 -25 30 -7 82 -18 115 -25 33 -7 87 -19 120 -25
33 -7 85 -18 115 -25 82 -20 168 -37 230 -45 30 -5 100 -16 155 -24 55 -9 131
-21 170 -26 38 -6 76 -12 85 -15 8 -3 53 -9 100 -15 47 -5 139 -16 205 -25 66
-8 163 -19 215 -25 52 -5 106 -12 120 -15 14 -3 72 -9 130 -15 211 -19 306
-31 345 -45 37 -12 53 -18 130 -50 17 -7 59 -23 95 -35 36 -12 79 -28 95 -35
17 -7 82 -31 145 -55 122 -44 176 -65 225 -85 17 -7 50 -20 75 -28 25 -9 97
-34 160 -57 63 -23 131 -46 150 -52 19 -6 40 -14 45 -18 6 -4 21 -10 35 -13
14 -3 50 -14 80 -25 30 -11 102 -34 160 -52 58 -18 132 -41 165 -52 33 -11 98
-30 145 -43 47 -13 150 -42 230 -65 80 -23 161 -45 180 -50 53 -12 277 -69
350 -90 19 -5 67 -17 105 -25 78 -18 182 -42 235 -55 111 -27 247 -57 365 -80
33 -6 89 -18 125 -26 154 -33 260 -53 405 -79 50 -9 110 -20 135 -25 25 -5 63
-12 85 -15 22 -4 63 -10 90 -15 101 -18 233 -39 340 -55 61 -9 135 -20 165
-25 134 -23 654 -83 860 -100 668 -54 1612 -59 2010 -11 41 5 129 14 195 20
121 11 288 33 400 51 280 47 421 71 485 85 41 10 93 20 115 25 88 17 241 51
265 60 25 8 44 14 225 65 50 14 115 32 145 41 56 17 301 106 355 129 17 7 50
20 75 28 88 29 485 217 585 277 28 16 57 33 65 37 8 4 43 24 78 45 34 21 64
38 66 38 37 0 574 386 656 470 3 3 52 46 110 95 57 50 125 111 150 136 129
129 317 337 394 434 49 61 95 119 105 130 9 11 28 37 43 57 15 20 34 42 41 50
25 25 241 353 268 406 7 15 18 34 25 42 33 44 274 522 274 545 0 3 11 28 24
57 66 143 215 567 275 783 45 163 69 260 107 440 8 39 19 88 24 110 5 22 16
90 24 150 9 61 21 137 26 170 37 219 48 653 25 965 -21 292 -30 383 -43 450
-6 30 -16 89 -22 130 -7 41 -21 118 -32 170 -11 52 -26 124 -34 160 -7 36 -24
106 -38 155 -13 50 -34 126 -45 170 -12 44 -26 88 -31 97 -6 10 -10 25 -10 33
0 8 -4 23 -9 33 -6 9 -24 60 -41 112 -17 52 -35 104 -40 115 -4 11 -22 56 -40
100 -17 44 -36 91 -42 105 -6 14 -14 34 -19 45 -21 51 -183 381 -231 470 -102
190 -284 473 -427 665 -39 52 -71 100 -71 106 0 10 159 120 225 155 16 9 55
31 85 48 107 62 441 221 463 221 7 0 17 4 23 9 10 10 255 93 344 117 156 43
271 68 423 94 65 11 126 24 136 29 14 8 20 29 26 103 4 51 8 107 9 123 l1 30
-110 3 c-145 5 -571 -22 -775 -48 -41 -6 -111 -14 -155 -20 -254 -31 -655
-109 -895 -174 -80 -22 -249 -66 -289 -76 -43 -11 -53 -5 -117 62 -175 181
-407 381 -622 536 -108 78 -333 232 -338 232 -3 0 -20 11 -38 25 -18 14 -36
25 -40 25 -4 0 -22 11 -40 25 -18 14 -36 25 -39 25 -4 0 -53 28 -109 63 -92
57 -183 106 -513 277 -49 25 -115 57 -145 69 -30 13 -84 37 -120 53 -36 17
-85 38 -110 48 -25 10 -72 30 -105 44 -94 42 -97 43 -150 61 -27 10 -59 21
-70 25 -11 5 -47 18 -80 29 -33 11 -98 34 -145 51 -105 39 -148 53 -225 75
-33 9 -82 23 -110 31 -325 92 -335 95 -635 159 -41 9 -93 20 -115 25 -39 9
-122 23 -315 54 -586 95 -1257 131 -1945 105z m6223 -3004 c2 -11 7 -29 12
-40 18 -39 88 -271 105 -345 9 -41 20 -93 25 -115 5 -22 17 -105 26 -185 18
-158 16 -524 -5 -670 -5 -41 -18 -138 -27 -215 -9 -77 -25 -189 -36 -250 -10
-60 -23 -135 -28 -165 -10 -55 -23 -119 -55 -260 -10 -41 -21 -93 -26 -115 -5
-22 -16 -65 -24 -95 -9 -30 -22 -77 -30 -105 -31 -118 -47 -174 -76 -264 -17
-53 -35 -105 -39 -116 -5 -11 -23 -63 -40 -115 -17 -52 -35 -104 -40 -115 -4
-11 -22 -56 -40 -100 -18 -44 -36 -89 -41 -100 -5 -11 -22 -55 -39 -98 -16
-43 -52 -126 -79 -185 -27 -59 -68 -147 -90 -197 -23 -49 -57 -119 -75 -155
-142 -274 -182 -349 -202 -382 -13 -21 -24 -40 -24 -43 0 -2 -29 -52 -65 -110
-36 -57 -65 -107 -65 -110 0 -6 -81 -137 -90 -145 -3 -3 -57 -84 -121 -180
-97 -146 -150 -220 -216 -305 -5 -5 -39 -53 -78 -105 -38 -52 -118 -153 -178
-225 -60 -71 -128 -152 -150 -180 -23 -27 -71 -81 -107 -120 -35 -38 -89 -97
-119 -130 -56 -61 -290 -294 -442 -441 -46 -44 -129 -118 -184 -165 -55 -46
-113 -96 -130 -112 -27 -25 -103 -87 -249 -203 -85 -67 -265 -196 -376 -270
-58 -38 -106 -72 -108 -76 -2 -5 -7 -8 -12 -8 -5 0 -35 -18 -68 -39 -32 -22
-74 -48 -93 -59 -376 -210 -429 -238 -595 -313 -34 -15 -95 -43 -135 -62 -77
-37 -297 -124 -434 -172 -44 -15 -84 -31 -90 -35 -5 -4 -21 -10 -35 -13 -14
-3 -50 -13 -80 -22 -30 -9 -68 -20 -85 -25 -16 -5 -55 -16 -85 -25 -30 -9 -68
-20 -85 -25 -16 -4 -57 -15 -90 -24 -55 -15 -151 -37 -250 -56 -22 -4 -107
-21 -190 -38 -82 -16 -211 -37 -285 -46 -74 -9 -162 -21 -195 -26 -339 -56
-1073 -51 -1500 9 -210 30 -294 43 -335 51 -94 18 -217 41 -260 50 -53 11
-289 66 -340 80 -19 5 -60 16 -90 24 -85 23 -331 87 -370 97 -19 4 -57 15 -85
23 -27 8 -113 33 -190 54 -77 22 -171 50 -210 61 -38 12 -95 29 -125 37 -123
36 -483 154 -620 205 -47 17 -96 35 -110 39 -39 13 -282 114 -309 129 -20 11
-21 15 -9 27 10 10 51 16 143 20 265 10 730 53 995 90 194 27 245 35 335 50
179 30 261 45 300 54 22 4 76 16 120 25 44 10 134 31 200 47 66 17 138 33 160
38 65 12 288 79 460 136 405 135 488 165 635 228 19 8 114 47 210 87 96 39
265 115 375 169 110 53 218 106 240 117 45 22 155 82 170 93 6 4 30 18 55 32
25 14 72 40 105 58 33 18 76 42 95 53 66 36 215 131 218 139 2 4 7 8 11 8 8 0
64 36 246 156 69 46 168 116 200 142 6 4 82 60 170 124 88 64 171 127 185 140
14 13 45 39 70 58 25 19 50 39 56 45 15 13 42 36 141 118 45 37 95 79 111 95
15 15 66 61 113 102 143 127 895 883 1079 1086 25 27 90 99 145 159 55 61 111
122 125 136 14 14 63 68 110 120 47 51 113 123 146 159 34 36 77 83 95 105 19
22 48 56 65 75 17 19 55 62 84 95 29 33 67 76 84 95 66 73 243 274 284 324 24
28 63 71 86 96 23 25 68 77 101 115 33 39 63 72 66 75 3 3 57 64 119 135 63
72 116 132 120 135 3 3 66 75 140 160 74 85 137 157 140 160 3 3 41 46 85 95
43 50 120 135 170 190 51 55 112 122 136 149 24 28 51 57 59 66 367 392 779
805 1081 1082 52 48 121 112 154 143 60 57 87 65 93 30z"/>
</g>
</svg>
